<?xml version="1.0" encoding="utf-8"?>
<!-- Generator: Adobe Illustrator 16.0.0, SVG Export Plug-In . SVG Version: 6.00 Build 0)  -->
<!DOCTYPE svg PUBLIC "-//W3C//DTD SVG 1.1//EN" "http://www.w3.org/Graphics/SVG/1.1/DTD/svg11.dtd">
<svg version="1.1" id="Layer_1" xmlns="http://www.w3.org/2000/svg" xmlns:xlink="http://www.w3.org/1999/xlink" x="0px" y="0px"
	 width="70px" height="30px" viewBox="0 0 70 30" enable-background="new 0 0 70 30" xml:space="preserve">
<g>
	<g>
		<path fill="#FF3946" d="M23.687,25.399c0.234,0,0.36,0.126,0.36,0.359v2.665c0,0.234-0.126,0.36-0.36,0.36h-8.661
			c-0.216,0-0.36-0.108-0.378-0.342c-0.036-0.45-0.072-1.009-0.072-1.675c0-4.556,5.636-5.203,5.636-6.716
			c0-0.486-0.288-0.793-1.063-0.793c-1.242,0-2.539,0.289-3.601,0.685c-0.252,0.091-0.414-0.018-0.414-0.288v-2.502
			c0-0.181,0.072-0.324,0.234-0.433c0.955-0.612,2.305-1.08,3.89-1.08c2.898,0,4.753,1.765,4.753,4.104
			c0,3.926-4.843,4.7-4.915,5.654H23.687z"/>
		<path fill="#FF3946" d="M24.998,22.32c0-3.871,1.62-6.698,5.563-6.698s5.563,2.827,5.563,6.698c0,3.889-1.62,6.68-5.563,6.68
			S24.998,26.209,24.998,22.32z M30.562,25.705c1.548,0,1.71-1.639,1.71-3.385c0-1.729-0.162-3.403-1.71-3.403
			c-1.53,0-1.71,1.675-1.71,3.403C28.851,24.066,29.031,25.705,30.562,25.705z"/>
		<path fill="#FF3946" d="M37.13,22.32c0-3.871,1.621-6.698,5.563-6.698c3.943,0,5.564,2.827,5.564,6.698
			c0,3.889-1.621,6.68-5.564,6.68C38.751,29,37.13,26.209,37.13,22.32z M42.693,25.705c1.549,0,1.711-1.639,1.711-3.385
			c0-1.729-0.162-3.403-1.711-3.403c-1.53,0-1.71,1.675-1.71,3.403C40.983,24.066,41.163,25.705,42.693,25.705z"/>
		<path fill="#FF3946" d="M58.444,25.399c0.234,0,0.36,0.126,0.36,0.359v2.665c0,0.234-0.126,0.36-0.36,0.36h-8.66
			c-0.216,0-0.36-0.108-0.378-0.342c-0.036-0.45-0.072-1.009-0.072-1.675c0-4.556,5.636-5.203,5.636-6.716
			c0-0.486-0.288-0.793-1.063-0.793c-1.242,0-2.539,0.289-3.601,0.685c-0.252,0.091-0.414-0.018-0.414-0.288v-2.502
			c0-0.181,0.071-0.324,0.233-0.433c0.954-0.612,2.305-1.08,3.89-1.08c2.898,0,4.753,1.765,4.753,4.104
			c0,3.926-4.843,4.7-4.915,5.654H58.444z"/>
	</g>
</g>
<g>
	<g>
		<linearGradient id="SVGID_1_" gradientUnits="userSpaceOnUse" x1="20.2979" y1="20.9688" x2="20.2979" y2="3.0234">
			<stop  offset="0.133" style="stop-color:#FFFFFF;stop-opacity:0.6"/>
			<stop  offset="0.1602" style="stop-color:#E5E8F7;stop-opacity:0.6126"/>
			<stop  offset="0.2143" style="stop-color:#B6C0E8;stop-opacity:0.6375"/>
			<stop  offset="0.2733" style="stop-color:#8C9CDA;stop-opacity:0.6647"/>
			<stop  offset="0.336" style="stop-color:#677CCE;stop-opacity:0.6936"/>
			<stop  offset="0.4032" style="stop-color:#4962C5;stop-opacity:0.7247"/>
			<stop  offset="0.4765" style="stop-color:#304CBD;stop-opacity:0.7585"/>
			<stop  offset="0.5581" style="stop-color:#1D3BB7;stop-opacity:0.7961"/>
			<stop  offset="0.6529" style="stop-color:#0F30B2;stop-opacity:0.8399"/>
			<stop  offset="0.7728" style="stop-color:#0729B0;stop-opacity:0.8952"/>
			<stop  offset="1" style="stop-color:#0527AF"/>
		</linearGradient>
		<path fill="url(#SVGID_1_)" stroke="#0527AF" stroke-width="0.25" stroke-miterlimit="10" d="M16.824,3.023l2.849,5.049
			c0.275,0.45,0.325,1.225,0.375,1.95h0.575c0.05-0.75,0.025-1.4,0.35-1.95l2.799-5.049h5.574l-6.449,10.198v7.748h-5.224v-7.748
			L11.25,3.023H16.824z"/>
		<linearGradient id="SVGID_2_" gradientUnits="userSpaceOnUse" x1="38.8975" y1="20.9688" x2="38.8975" y2="3.0234">
			<stop  offset="0.133" style="stop-color:#FFFFFF;stop-opacity:0.6"/>
			<stop  offset="0.1602" style="stop-color:#E5E8F7;stop-opacity:0.6126"/>
			<stop  offset="0.2143" style="stop-color:#B6C0E8;stop-opacity:0.6375"/>
			<stop  offset="0.2733" style="stop-color:#8C9CDA;stop-opacity:0.6647"/>
			<stop  offset="0.336" style="stop-color:#677CCE;stop-opacity:0.6936"/>
			<stop  offset="0.4032" style="stop-color:#4962C5;stop-opacity:0.7247"/>
			<stop  offset="0.4765" style="stop-color:#304CBD;stop-opacity:0.7585"/>
			<stop  offset="0.5581" style="stop-color:#1D3BB7;stop-opacity:0.7961"/>
			<stop  offset="0.6529" style="stop-color:#0F30B2;stop-opacity:0.8399"/>
			<stop  offset="0.7728" style="stop-color:#0729B0;stop-opacity:0.8952"/>
			<stop  offset="1" style="stop-color:#0527AF"/>
		</linearGradient>
		<path fill="url(#SVGID_2_)" stroke="#0527AF" stroke-width="0.25" stroke-miterlimit="10" d="M35.424,3.023l2.849,5.049
			c0.275,0.45,0.325,1.225,0.375,1.95h0.575c0.05-0.75,0.024-1.4,0.35-1.95l2.799-5.049h5.574l-6.448,10.198v7.748h-5.224v-7.748
			L29.85,3.023H35.424z"/>
		<linearGradient id="SVGID_3_" gradientUnits="userSpaceOnUse" x1="54.7227" y1="21.2686" x2="54.7227" y2="3.0234">
			<stop  offset="0.133" style="stop-color:#FFFFFF;stop-opacity:0.6"/>
			<stop  offset="0.1602" style="stop-color:#E5E8F7;stop-opacity:0.6126"/>
			<stop  offset="0.2143" style="stop-color:#B6C0E8;stop-opacity:0.6375"/>
			<stop  offset="0.2733" style="stop-color:#8C9CDA;stop-opacity:0.6647"/>
			<stop  offset="0.336" style="stop-color:#677CCE;stop-opacity:0.6936"/>
			<stop  offset="0.4032" style="stop-color:#4962C5;stop-opacity:0.7247"/>
			<stop  offset="0.4765" style="stop-color:#304CBD;stop-opacity:0.7585"/>
			<stop  offset="0.5581" style="stop-color:#1D3BB7;stop-opacity:0.7961"/>
			<stop  offset="0.6529" style="stop-color:#0F30B2;stop-opacity:0.8399"/>
			<stop  offset="0.7728" style="stop-color:#0729B0;stop-opacity:0.8952"/>
			<stop  offset="1" style="stop-color:#0527AF"/>
		</linearGradient>
		<path fill="url(#SVGID_3_)" stroke="#0527AF" stroke-width="0.25" stroke-miterlimit="10" d="M49.349,15.721
			c1.075,0.549,2.399,0.898,3.499,0.898c1.15,0,2.025-0.399,2.025-1.999V3.023h5.224v11.948c0,3.824-2.625,6.298-6.398,6.298
			c-1.75,0-3.274-0.375-4.35-1.075V15.721z"/>
	</g>
</g>
</svg>
